<?xml version="1.0" encoding="utf-8"?>
<!-- Generator: Adobe Illustrator 26.0.1, SVG Export Plug-In . SVG Version: 6.00 Build 0)  -->
<svg version="1.1" xmlns="http://www.w3.org/2000/svg" xmlns:xlink="http://www.w3.org/1999/xlink" x="0px" y="0px"
	 viewBox="0 0 512 115.9" style="enable-background:new 0 0 512 115.9;" xml:space="preserve">
<style type="text/css">
	.st0{fill:#232323;}
	.st1{fill:#FFEB3B;}
	.st2{fill:#FFFFFF;}
</style>
<g id="Layer_6">
	<path class="st0" d="M455.5,10.5H110.3h-6.5H57.7c-26.5,0-48,21.5-48,48l0,0c0,26.5,21.5,48,48,48h46.1h6.5h345.2
		c25.8,0,46.8-21,46.8-46.8v-2.3C502.3,31.5,481.3,10.5,455.5,10.5z"/>
</g>
<g id="Layer_5">
	<g>
		<path class="st1" d="M56.8,27c-17.2,0-31.1,14-31.1,31.1s14,31.1,31.1,31.1s31.1-14,31.1-31.1S73.9,27,56.8,27z"/>
		<polygon class="st0" points="58.6,48.2 56,51.2 61.2,56.1 44.7,56.1 44.7,60.3 61.1,60.3 56,65 58.6,68 69.3,58.1 		"/>
	</g>
</g>
<g id="Layer_4">
	<g>
		<path class="st2" d="M135.5,66.9c0,3.1-1.1,5.5-3.4,7.4c-2.3,1.8-5,2.7-8.3,2.7c-2.9,0-5.4-0.8-7.6-2.5c-2.2-1.7-3.7-4-4.6-6.9
			l4.3-1.8c0.3,1,0.7,2,1.2,2.8c0.5,0.8,1.1,1.6,1.8,2.2c0.7,0.6,1.5,1.1,2.3,1.4c0.8,0.3,1.7,0.5,2.7,0.5c2,0,3.7-0.5,5-1.6
			s1.9-2.5,1.9-4.2c0-1.5-0.5-2.7-1.6-3.8c-1-1-2.9-2-5.6-2.9c-2.8-1-4.5-1.7-5.2-2c-3.7-1.9-5.6-4.7-5.6-8.3c0-2.6,1-4.8,3.1-6.6
			c2.1-1.8,4.6-2.7,7.6-2.7c2.7,0,5,0.7,6.9,2c1.9,1.3,3.2,3,3.9,5l-4.2,1.8c-0.4-1.3-1.2-2.4-2.3-3.2c-1.2-0.9-2.6-1.3-4.2-1.3
			c-1.8,0-3.2,0.5-4.4,1.5c-1.2,0.9-1.8,2.1-1.8,3.5c0,1.2,0.5,2.2,1.4,3.1c1,0.9,3.3,1.9,6.8,3.1c3.5,1.2,6.1,2.7,7.6,4.4
			C134.7,62.2,135.5,64.4,135.5,66.9z"/>
		<path class="st2" d="M153.3,77c-1.8,0-3.4-0.4-4.8-1.1c-1.4-0.7-2.6-1.7-3.3-3h-0.2l0.2,3.3v10.5h-4.5V52.4h4.3v3.3h0.2
			c0.8-1.2,1.9-2.2,3.3-3c1.4-0.7,3-1.1,4.8-1.1c3.1,0,5.8,1.2,8,3.7c2.2,2.5,3.4,5.5,3.4,9c0,3.5-1.1,6.5-3.4,9
			C159.1,75.8,156.4,77,153.3,77z M152.5,72.9c2.1,0,3.9-0.8,5.4-2.4c1.5-1.6,2.2-3.7,2.2-6.2c0-2.5-0.7-4.6-2.2-6.2
			c-1.5-1.6-3.3-2.4-5.4-2.4c-2.2,0-4,0.8-5.5,2.4c-1.4,1.6-2.1,3.7-2.1,6.2c0,2.5,0.7,4.6,2.1,6.2
			C148.5,72.1,150.4,72.9,152.5,72.9z"/>
		<path class="st2" d="M178.5,51.6c3.3,0,5.9,0.9,7.8,2.7c1.9,1.8,2.9,4.2,2.9,7.3v14.7H185v-3.3h-0.2c-1.9,2.7-4.3,4.1-7.4,4.1
			c-2.6,0-4.8-0.8-6.6-2.3c-1.8-1.6-2.7-3.5-2.7-5.8c0-2.5,0.9-4.4,2.8-5.9c1.9-1.5,4.4-2.2,7.5-2.2c2.7,0,4.9,0.5,6.6,1.5v-1
			c0-1.6-0.6-2.9-1.9-4c-1.2-1.1-2.7-1.6-4.3-1.6c-2.5,0-4.5,1.1-5.9,3.2l-3.9-2.5C171.1,53.1,174.3,51.6,178.5,51.6z M172.7,68.9
			c0,1.2,0.5,2.1,1.5,2.9c1,0.8,2.2,1.2,3.5,1.2c1.9,0,3.6-0.7,5-2.1c1.5-1.4,2.2-3,2.2-4.9c-1.4-1.1-3.3-1.7-5.8-1.7
			c-1.8,0-3.3,0.4-4.6,1.3C173.4,66.5,172.7,67.6,172.7,68.9z"/>
		<path class="st2" d="M199.6,76.2h-4.5V52.4h4.3v3.9h0.2c0.5-1.3,1.4-2.3,2.8-3.2c1.4-0.9,2.8-1.3,4.2-1.3c1.3,0,2.4,0.2,3.3,0.6
			l-1.4,4.3c-0.6-0.2-1.4-0.3-2.6-0.3c-1.7,0-3.2,0.7-4.4,2c-1.2,1.4-1.9,3-1.9,4.8V76.2z"/>
		<path class="st2" d="M234.8,76.2h-5.4L221.9,65l-3.7,3.6v7.6h-4.5V41.4h4.5v21.5l10.3-10.5h5.7v0.2l-9.3,9.3l9.7,14.2V76.2z"/>
	</g>
</g>
<g id="Layer_3">
	<g>
		<path class="st2" d="M250.9,76.2h-5l13.1-34.9h5.1l13.1,34.9h-5l-3.4-9.4h-14.7L250.9,76.2z M261.6,46.9l-5.7,15.7h11.6l-5.7-15.7
			H261.6z"/>
		<path class="st2" d="M286.7,76.2h-4.5V41.4h11.9c3,0,5.6,1,7.7,3s3.2,4.5,3.2,7.4c0,2.4-0.8,4.5-2.4,6.4c-1.6,1.9-3.6,3.1-6,3.6
			l-0.1,0.1l9.8,14.2v0.2H301l-9.4-14.1h-5V76.2z M286.7,45.6v12.3h7.2c1.8,0,3.4-0.6,4.6-1.8c1.3-1.2,1.9-2.7,1.9-4.4
			c0-1.6-0.6-3-1.8-4.3c-1.2-1.2-2.7-1.8-4.5-1.8H286.7z"/>
	</g>
</g>
<g id="Layer_2">
	<g>
		<path class="st2" d="M323.2,76.2h-5l13.1-34.9h5.1l13.1,34.9h-5l-3.4-9.4h-14.7L323.2,76.2z M333.8,46.9l-5.7,15.7h11.6L334,46.9
			H333.8z"/>
		<path class="st2" d="M371.9,69.6c0,2.1-0.9,3.8-2.7,5.3c-1.8,1.4-4.1,2.1-6.9,2.1c-2.4,0-4.5-0.6-6.3-1.9
			c-1.8-1.2-3.1-2.9-3.9-4.9l4-1.7c0.6,1.4,1.4,2.5,2.6,3.3c1.1,0.8,2.3,1.2,3.7,1.2c1.4,0,2.6-0.3,3.6-0.9c1-0.6,1.4-1.3,1.4-2.2
			c0-1.5-1.2-2.6-3.5-3.4l-4.1-1c-4.6-1.2-7-3.4-7-6.7c0-2.2,0.9-3.9,2.7-5.2c1.8-1.3,4-2,6.8-2c2.1,0,4,0.5,5.7,1.5
			c1.7,1,2.9,2.4,3.6,4l-4,1.7c-0.5-1-1.2-1.8-2.2-2.4c-1-0.6-2.2-0.9-3.4-0.9c-1.2,0-2.2,0.3-3.1,0.9c-0.9,0.6-1.4,1.3-1.4,2.1
			c0,1.4,1.3,2.3,3.8,2.9l3.6,0.9C369.6,63.6,371.9,66,371.9,69.6z"/>
		<path class="st2" d="M394.9,69.6c0,2.1-0.9,3.8-2.7,5.3c-1.8,1.4-4.1,2.1-6.9,2.1c-2.4,0-4.5-0.6-6.3-1.9
			c-1.8-1.2-3.1-2.9-3.9-4.9l4-1.7c0.6,1.4,1.4,2.5,2.6,3.3c1.1,0.8,2.3,1.2,3.7,1.2c1.4,0,2.6-0.3,3.6-0.9c1-0.6,1.4-1.3,1.4-2.2
			c0-1.5-1.2-2.6-3.5-3.4l-4.1-1c-4.6-1.2-7-3.4-7-6.7c0-2.2,0.9-3.9,2.7-5.2c1.8-1.3,4-2,6.8-2c2.1,0,4,0.5,5.7,1.5
			c1.7,1,2.9,2.4,3.6,4l-4,1.7c-0.5-1-1.2-1.8-2.2-2.4c-1-0.6-2.2-0.9-3.4-0.9c-1.2,0-2.2,0.3-3.1,0.9c-0.9,0.6-1.4,1.3-1.4,2.1
			c0,1.4,1.3,2.3,3.8,2.9l3.6,0.9C392.5,63.6,394.9,66,394.9,69.6z"/>
		<path class="st2" d="M410.5,77c-3.5,0-6.4-1.2-8.7-3.6c-2.3-2.4-3.4-5.4-3.4-9.1c0-3.6,1.1-6.7,3.3-9.1c2.2-2.4,5-3.6,8.5-3.6
			c3.5,0,6.4,1.1,8.4,3.4s3.1,5.5,3.1,9.6l0,0.5H403c0.1,2.3,0.8,4.2,2.3,5.6s3.3,2.1,5.4,2.1c2.9,0,5.1-1.4,6.7-4.3l4,1.9
			c-1.1,2-2.6,3.6-4.5,4.7C415.1,76.4,412.9,77,410.5,77z M403.3,61.4H417c-0.1-1.7-0.8-3-2-4.1c-1.2-1.1-2.8-1.6-4.9-1.6
			c-1.7,0-3.1,0.5-4.4,1.6C404.5,58.3,403.7,59.7,403.3,61.4z"/>
		<path class="st2" d="M435.4,76.6c-1.9,0-3.6-0.6-4.8-1.8c-1.3-1.2-1.9-2.9-2-5V56.4h-4.2v-4.1h4.2v-7.3h4.5v7.3h5.8v4.1h-5.8v11.9
			c0,1.6,0.3,2.7,0.9,3.2c0.6,0.6,1.3,0.9,2.1,0.9c0.4,0,0.7,0,1-0.1c0.3-0.1,0.7-0.2,1-0.3l1.4,4C438.3,76.4,436.9,76.6,435.4,76.6
			z"/>
		<path class="st2" d="M462.7,69.6c0,2.1-0.9,3.8-2.7,5.3c-1.8,1.4-4.1,2.1-6.9,2.1c-2.4,0-4.5-0.6-6.3-1.9
			c-1.8-1.2-3.1-2.9-3.9-4.9l4-1.7c0.6,1.4,1.4,2.5,2.6,3.3c1.1,0.8,2.3,1.2,3.7,1.2c1.4,0,2.6-0.3,3.6-0.9c1-0.6,1.4-1.3,1.4-2.2
			c0-1.5-1.2-2.6-3.5-3.4l-4.1-1c-4.6-1.2-7-3.4-7-6.7c0-2.2,0.9-3.9,2.7-5.2c1.8-1.3,4-2,6.8-2c2.1,0,4,0.5,5.7,1.5
			c1.7,1,2.9,2.4,3.6,4l-4,1.7c-0.5-1-1.2-1.8-2.2-2.4c-1-0.6-2.2-0.9-3.4-0.9c-1.2,0-2.2,0.3-3.1,0.9c-0.9,0.6-1.4,1.3-1.4,2.1
			c0,1.4,1.3,2.3,3.8,2.9l3.6,0.9C460.3,63.6,462.7,66,462.7,69.6z"/>
	</g>
</g>
</svg>
